<?xml version="1.0" encoding="utf-8"?>
<!-- Generator: Adobe Illustrator 18.0.0, SVG Export Plug-In . SVG Version: 6.00 Build 0)  -->
<!DOCTYPE svg PUBLIC "-//W3C//DTD SVG 1.1//EN" "http://www.w3.org/Graphics/SVG/1.1/DTD/svg11.dtd">
<svg version="1.1" id="图层_1" xmlns="http://www.w3.org/2000/svg" xmlns:xlink="http://www.w3.org/1999/xlink" x="0px" y="0px"
	 viewBox="0 0 5.4 5.6" enable-background="new 0 0 5.4 5.6" xml:space="preserve">
<path fill-rule="evenodd" clip-rule="evenodd" fill="white" d="M0.4,0h4.5c0.2,0,0.5,0.2,0.5,0.4S5.2,0.9,4.9,0.9H0.4
	C0.2,0.9,0,0.7,0,0.4S0.2,0,0.4,0z"/>
<path fill-rule="evenodd" clip-rule="evenodd" fill="white" d="M0.4,2.3h4.5c0.2,0,0.5,0.2,0.5,0.5S5.2,3.2,4.9,3.2H0.4
	C0.2,3.2,0,3,0,2.8S0.2,2.3,0.4,2.3z"/>
<path fill-rule="evenodd" clip-rule="evenodd" fill="white" d="M0.4,4.7h4.5c0.2,0,0.5,0.2,0.5,0.4c0,0.2-0.2,0.5-0.5,0.5H0.4
	C0.2,5.6,0,5.4,0,5.1C0,4.9,0.2,4.7,0.4,4.7z"/>
</svg>
